<svg width="78" height="76" viewBox="0 0 78 76" fill="none" xmlns="http://www.w3.org/2000/svg">
<path d="M39 0C33.8784 0 28.807 1.0073 24.0753 2.96439C19.3436 4.92148 15.0443 7.79003 11.4228 11.4063C4.10892 18.7096 0 28.615 0 38.9434C0 56.1564 11.193 70.7602 26.676 75.9397C28.626 76.2512 29.25 75.044 29.25 73.9925V67.4111C18.447 69.7477 16.146 62.1926 16.146 62.1926C14.352 57.6752 11.817 56.468 11.817 56.468C8.268 54.0535 12.09 54.1314 12.09 54.1314C15.99 54.404 18.057 58.1425 18.057 58.1425C21.45 64.0619 27.183 62.3095 29.406 61.3748C29.757 58.8435 30.771 57.13 31.863 56.1564C23.205 55.1828 14.118 51.8337 14.118 36.9963C14.118 32.6735 15.6 29.2076 18.135 26.4426C17.745 25.469 16.38 21.4189 18.525 16.1615C18.525 16.1615 21.801 15.11 29.25 20.1338C32.331 19.277 35.685 18.8486 39 18.8486C42.315 18.8486 45.669 19.277 48.75 20.1338C56.199 15.11 59.475 16.1615 59.475 16.1615C61.62 21.4189 60.255 25.469 59.865 26.4426C62.4 29.2076 63.882 32.6735 63.882 36.9963C63.882 51.8726 54.756 55.1439 46.059 56.1175C47.463 57.3247 48.75 59.7003 48.75 63.322V73.9925C48.75 75.044 49.374 76.2902 51.363 75.9397C66.846 70.7213 78 56.1564 78 38.9434C78 33.8293 76.9912 28.7653 75.0313 24.0404C73.0714 19.3156 70.1987 15.0225 66.5772 11.4063C62.9557 7.79003 58.6564 4.92148 53.9247 2.96439C49.193 1.0073 44.1216 0 39 0V0Z" fill="white"/>
</svg>
