<svg width="77" height="77" viewBox="0 0 77 77" fill="none" xmlns="http://www.w3.org/2000/svg">
<path d="M38.2722 3.43457H22.5957C11.7733 3.43457 3 12.2079 3 23.0302V54.3833C3 65.2056 11.7733 73.979 22.5957 73.979H53.9488C64.7711 73.979 73.5444 65.2056 73.5444 54.3833V23.0302C73.5444 12.2079 64.7711 3.43457 53.9488 3.43457H38.2722Z" stroke="white" stroke-width="5" stroke-linecap="round" stroke-linejoin="round"/>
<path d="M38.2722 23.0303C46.9302 23.0303 53.9488 30.0489 53.9488 38.7068C53.9488 47.3647 46.9302 54.3834 38.2722 54.3834C29.6143 54.3834 22.5957 47.3646 22.5957 38.7068C22.5957 30.0489 29.6143 23.0303 38.2722 23.0303Z" stroke="white" stroke-width="5" stroke-linecap="round" stroke-linejoin="round"/>
<path d="M57.868 24.9898C61.1147 24.9898 63.7467 22.3578 63.7467 19.1111C63.7467 15.8644 61.1147 13.2324 57.868 13.2324C54.6212 13.2324 51.9893 15.8644 51.9893 19.1111C51.9893 22.3578 54.6212 24.9898 57.868 24.9898Z" fill="white"/>
</svg>
