<svg width="62" height="71" viewBox="0 0 62 71" fill="none" xmlns="http://www.w3.org/2000/svg">
<path d="M49.1888 11.1233C49.1888 11.1233 51.2054 13.0956 49.1888 11.1233C46.4859 8.04518 44.9963 4.09209 44.9974 0H32.7793V48.9111C32.6851 51.5579 31.5649 54.065 29.6547 55.9044C27.7444 57.7437 25.1932 58.7718 22.5383 58.7722C16.9235 58.7722 12.2577 54.1967 12.2577 48.5167C12.2577 41.7322 18.8214 36.6439 25.5829 38.7344V26.27C11.9413 24.4556 0 35.0267 0 48.5167C0 61.6517 10.9133 71 22.4987 71C34.9145 71 44.9974 60.9417 44.9974 48.5167V23.7061C49.9519 27.2555 55.9003 29.1599 62 29.1494V16.9611C62 16.9611 54.5663 17.3161 49.1888 11.1233Z" fill="white"/>
</svg>
