<svg width="82" height="67" viewBox="0 0 82 67" fill="none" xmlns="http://www.w3.org/2000/svg">
<path d="M82 7.88235C78.9818 9.26176 75.7285 10.1682 72.3576 10.6018C75.8069 8.51294 78.4723 5.20235 79.7266 1.22176C76.4732 3.19235 72.8671 4.57177 69.065 5.36C65.9685 1.97059 61.6176 0 56.6788 0C47.4675 0 39.9417 7.56706 39.9417 16.9076C39.9417 18.2476 40.0985 19.5482 40.3729 20.77C26.4187 20.0606 13.9933 13.3212 5.72275 3.11353C4.27247 5.59647 3.44933 8.51294 3.44933 11.5871C3.44933 17.4594 6.3891 22.6618 10.9359 25.6176C8.15296 25.6176 5.56597 24.8294 3.29254 23.6471V23.7653C3.29254 31.9629 9.09369 38.8206 16.7763 40.3576C14.3097 41.0363 11.7203 41.1308 9.21128 40.6335C10.2759 43.9933 12.3609 46.9331 15.1732 49.0398C17.9855 51.1464 21.3837 52.314 24.8901 52.3782C18.9464 57.1094 11.5788 59.6667 3.99809 59.63C2.66539 59.63 1.3327 59.5512 0 59.3935C7.44742 64.2018 16.3059 67 25.7916 67C56.6788 67 73.6511 41.2247 73.6511 18.8782C73.6511 18.1294 73.6511 17.42 73.6119 16.6712C76.9044 14.3065 79.7266 11.3112 82 7.88235V7.88235Z" fill="white"/>
</svg>
