<svg width="78" height="55" viewBox="0 0 78 55" fill="none" xmlns="http://www.w3.org/2000/svg">
<path d="M31.2 39.2857L51.441 27.5L31.2 15.7143V39.2857ZM76.284 8.525C76.791 10.3714 77.142 12.8464 77.376 15.9893C77.649 19.1321 77.766 21.8429 77.766 24.2L78 27.5C78 36.1036 77.376 42.4286 76.284 46.475C75.309 50.0107 73.047 52.2893 69.537 53.2714C67.704 53.7821 64.35 54.1357 59.202 54.3714C54.132 54.6464 49.491 54.7643 45.201 54.7643L39 55C22.659 55 12.48 54.3714 8.463 53.2714C4.953 52.2893 2.691 50.0107 1.716 46.475C1.209 44.6286 0.858 42.1536 0.624 39.0107C0.351 35.8679 0.234 33.1571 0.234 30.8L0 27.5C0 18.8964 0.624 12.5714 1.716 8.525C2.691 4.98929 4.953 2.71071 8.463 1.72857C10.296 1.21786 13.65 0.864285 18.798 0.628571C23.868 0.353571 28.509 0.235714 32.799 0.235714L39 0C55.341 0 65.52 0.628572 69.537 1.72857C73.047 2.71071 75.309 4.98929 76.284 8.525V8.525Z" fill="white"/>
</svg>
